<svg width="78" height="27" viewBox="0 0 78 27" fill="none" xmlns="http://www.w3.org/2000/svg">
<path fill-rule="evenodd" clip-rule="evenodd" d="M77.2553 18.4075C77.1465 18.3459 77.0274 18.2946 76.9022 18.2576C76.8591 18.2453 76.816 18.235 76.7728 18.2248C75.9885 18.0626 75.2207 18.5635 75.0256 19.3396C75.0092 19.4033 74.9928 19.469 74.9722 19.5326C74.925 19.6948 74.8696 19.8529 74.81 20.0069C73.7855 22.6144 70.9234 24.0578 68.1804 23.257C68.0634 23.2221 67.9484 23.1852 67.8355 23.1441C67.6179 23.0661 67.4084 22.9737 67.2072 22.8711C66.5297 22.5241 65.6941 22.7253 65.2711 23.3576C65.1808 23.4932 65.1089 23.6451 65.0596 23.8093C65.0555 23.8237 65.0514 23.8381 65.0473 23.8545C64.8707 24.53 65.2013 25.2383 65.8234 25.5566C66.078 25.688 66.3429 25.8071 66.6139 25.9118C66.8479 26.0021 67.0861 26.0842 67.3325 26.1561C71.6667 27.4188 76.1959 25.0741 77.7029 20.8836C77.7625 20.7173 77.8179 20.5469 77.8672 20.3765C77.8959 20.2779 77.9226 20.1794 77.9472 20.0808C78.1115 19.4279 77.8364 18.736 77.2512 18.4055L77.2553 18.4075Z" fill="#00D8FF"/>
<path fill-rule="evenodd" clip-rule="evenodd" d="M72.0667 15.1943C71.4035 14.8823 70.7547 14.95 70.1552 15.3689C69.7138 15.6768 69.49 16.1265 69.375 16.6398C69.3401 16.7958 69.3257 16.9539 69.3134 17.112C69.3011 17.112 69.297 17.112 69.297 17.112C69.2805 17.0976 69.2641 17.0853 69.2497 17.0709C68.7282 16.6172 68.1349 16.4057 67.443 16.5659C66.0509 16.8882 65.4802 18.5163 66.3671 19.6291C66.6854 20.0275 67.098 20.3067 67.5477 20.5325C68.0014 20.7604 68.4716 20.9411 68.9541 21.0971C69.5023 21.2737 70.0587 21.4236 70.6233 21.5365C70.9641 21.6043 71.2639 21.5078 71.5226 21.2758C71.6642 21.1505 71.7464 20.9822 71.8347 20.822C72.2987 19.9884 72.7155 19.1343 72.9865 18.2166C73.1117 17.7936 73.1938 17.3625 73.1713 16.919C73.1322 16.1306 72.7853 15.5331 72.0667 15.1943Z" fill="#2500FF"/>
<path fill-rule="evenodd" clip-rule="evenodd" d="M27.3265 0H23.9511C23.2531 0 22.6063 0.587201 22.5283 1.32017L21.0439 15.4643C21.1445 10.9145 18.4857 6.63988 13.0941 6.63988C10.5626 6.63988 8.81533 7.55764 7.60808 8.91477L8.4047 1.32017C8.48066 0.587201 7.95711 0 7.22208 0H3.88366C3.15069 0 2.5019 0.587201 2.42388 1.32017L0.00732128 24.3606C-0.0686452 25.0936 0.454906 25.6808 1.18993 25.6808H4.85891C5.40915 25.6808 5.89575 25.2414 5.95324 24.6912L6.04152 23.8473C6.96339 25.2044 8.51762 26.1222 11.0492 26.1222C16.4407 26.1222 19.9988 21.8475 20.8488 17.3286L20.1118 24.3627C20.0358 25.0956 20.5593 25.6828 21.2574 25.6828H24.6328C25.3309 25.6828 25.9776 25.0956 26.0556 24.3627L28.4722 1.32223C28.5481 0.589254 28.0246 0.00205359 27.3265 0.00205359V0ZM14.9686 16.4005C14.7304 18.6754 13.0489 20.3631 10.5543 20.3631C8.31641 20.3631 6.74986 18.8582 7.00856 16.4005C7.26931 13.906 9.15204 12.401 11.39 12.401C13.8846 12.401 15.2129 14.0887 14.9686 16.4005ZM55.7565 6.64194C50.4655 6.64194 45.7864 10.8529 45.1684 16.3123L45.9978 8.40148C46.0738 7.66851 45.5503 7.08131 44.8152 7.08131H41.4768C40.7787 7.08131 40.132 7.66851 40.054 8.40148L39.1424 17.0966C38.9227 19.1887 37.5574 20.3241 35.8327 20.3241C34.1081 20.3241 32.9727 19.2606 33.2006 17.0966L34.1122 8.40148C34.1881 7.66851 33.6646 7.08131 32.9296 7.08131H29.5911C28.8582 7.08131 28.2094 7.66851 28.1313 8.40148L27.0493 18.7103C26.6531 22.4902 28.4742 26.1222 33.0959 26.1222C35.5165 26.1222 37.2268 25.2044 38.4197 23.9951L38.3458 24.6932C38.2883 25.2435 38.6825 25.6828 39.1958 25.6828H42.8647C43.5977 25.6828 44.2465 25.0956 44.3245 24.3627L45.1499 16.495C44.5955 22.2027 48.3179 26.1243 54.5944 26.1243C57.7131 26.1243 60.4048 24.9499 62.2075 23.1534C62.6242 22.677 62.5873 21.979 62.1089 21.6484L59.6656 20.1065C59.3228 19.8868 58.8772 19.9238 58.5159 20.2174C57.7562 20.8046 56.5613 21.3548 55.0953 21.3548C52.8204 21.3548 51.1266 20.3652 50.7303 18.1991H62.9466C63.6446 18.1991 64.2914 17.6119 64.3694 16.8789C65.2071 9.94545 60.9673 6.64194 55.7565 6.64194ZM51.143 14.604C51.9089 12.5488 53.5698 11.4114 55.4772 11.4114C57.5324 11.4114 58.9327 12.401 59.1791 14.604H51.1451H51.143Z" fill="#2500FF"/>
</svg>
